<?xml version="1.0" encoding="utf-8"?>
<!-- Generator: Adobe Illustrator 19.0.0, SVG Export Plug-In . SVG Version: 6.00 Build 0)  -->
<svg version="1.0" xmlns="http://www.w3.org/2000/svg" xmlns:xlink="http://www.w3.org/1999/xlink" x="0px" y="0px"
	 viewBox="0 0 600 300" style="enable-background:new 0 0 600 300;" xml:space="preserve">
<style type="text/css">
	.st0{fill:#B2B2B2;}
	.st1{fill:#FFFFFF;}
	.st2{fill:#B2B2B2;stroke:#B2B2B2;stroke-width:3.6;stroke-miterlimit:10;}
</style>
<g id="Layer_1">
	<g id="XMLID_7_">
		<path id="XMLID_5_" class="st0" d="M353.4,75.1c-4.2-4.5-10.1-10.2-18.2-14.4c-7.8-4.1-15.6-6.2-26.1-7c-1.8-0.1-3.5-0.2-5.3-0.2
			c-21.7,0-36.7,10.5-45.5,19.3c-9.8,9.8-21.2,26.5-19.6,49.9c1.2,17.3,11.1,30.8,19.1,41.8l0.3,0.5c1.4,1.9,2.9,3.9,4.5,5.9
			c4.9,6.3,10,12.9,13.6,21.2l0.4,1c1.5,3.4,3.3,7.6,3.1,9.8c-0.2,1.5-0.8,2.3-1.6,3.2c-1.1,1.2-2.4,2.7-1.6,6
			c1.1,4.2,6.4,4.2,12.6,4.2l32,0c0,0,0,0,0,0c5.1,0,10.3,0,11.4-4.2c0.8-3.2-0.6-4.9-1.8-6.4c-0.7-0.8-1.2-1.5-1.4-2.4
			c-0.6-4.2,4-13.8,8.5-21c2.8-4.5,5.9-8.4,8.8-12.2c1.4-1.7,2.7-3.4,3.9-5.1c0.6-0.9,1.3-1.7,2-2.6c8.2-11,16.6-22.3,17.9-39.1
			C372.5,99.3,360.7,82.8,353.4,75.1z"/>
		<path id="XMLID_3_" class="st0" d="M324,221.4c-2.1-0.4-5-0.6-9.6-0.6c-2.4,0-5,0.1-7.5,0.1c-2.5,0.1-5,0.1-7.4,0.1
			c-1,0-2.1,0-3.2,0c-1.2,0-2.4,0-3.5,0c-4.2,0-12.9,0-13.3,5.5c-0.1,1.5,0.4,2.8,1.4,3.8c2.4,2.2,7.2,2.5,11.6,2.5
			c2,0,4.2-0.1,6.3-0.1c2-0.1,4-0.1,5.8-0.1c1.3,0,2.8,0,4.3,0c3.4,0,7.1,0,10.3,0c5.4,0,10.5-0.1,10.9-5
			C330.4,222.8,326.7,222,324,221.4z"/>
		<path id="XMLID_2_" class="st0" d="M324,237c-2.1-0.4-5-0.6-9.6-0.6c-2.4,0-5,0.1-7.5,0.1c-2.5,0-5,0.1-7.4,0.1c-1,0-2.1,0-3.2,0
			c-1.2,0-2.4,0-3.5,0c-4.2,0-12.9,0-13.3,5.5c-0.1,1.5,0.4,2.8,1.4,3.8c2.4,2.2,7.2,2.5,11.6,2.5c2,0,4.2-0.1,6.3-0.1
			c2-0.1,4-0.1,5.8-0.1c1.3,0,2.8,0,4.3,0c3.4,0,7.1,0,10.3,0c5.4,0,10.5-0.1,10.9-5C330.4,238.3,326.7,237.6,324,237z"/>
		<path id="XMLID_1_" class="st0" d="M316.9,251.4L316.9,251.4c-1.4-0.4-3.8-0.5-8.1-0.5c-1.6,0-3.3,0-4.9,0c-1.3,0-2.6,0-3.8,0
			c-5.3,0-11.9,0.1-12.3,5c-0.1,1.6,0.3,2.9,1.4,3.9c1.9,1.8,5.3,2.1,10.1,2.1c0.8,0,1.7,0,2.6,0c0.9,0,1.8,0,2.8,0
			c1.1,0,2.2,0,3.2,0c1.1,0,2.2,0,3.3,0c3.4,0,10.5,0,10.8-5.1C322.2,252.8,319.2,252,316.9,251.4z"/>
	</g>
	<g id="XMLID_4_">
		<path id="XMLID_9_" class="st1" d="M272.7,121.8c-0.9-1.2-1.4-3.4-1.8-6.5c-0.2-2.1-0.3-4.4-0.3-6.9v-1.1c0-3,0.2-5.7,0.5-8.1
			c0.4-3.1,1.1-5.2,2-6.5c2.7-3.6,5.9-5.4,9.7-5.4c4.2,0,7.7,2.2,10.5,6.6c0.8,1.2,1.3,3.3,1.6,6.2c0.2,2.2,0.3,4.8,0.3,7.7
			c0,2.9-0.2,5.5-0.5,7.8c-0.4,2.9-1,5-1.8,6.3c-2.7,4.1-6.1,6.1-10.1,6.1C278.8,127.9,275.4,125.9,272.7,121.8z M282.8,120.1
			c1.2,0,2.4-0.8,3.6-2.5c0.6-1.5,0.9-4.7,1-9.8v-0.8c0-4.5-0.3-7.5-0.8-9c-1.2-1.9-2.4-2.8-3.7-2.8c-1.1,0-2.2,0.7-3.3,2.1
			c-0.7,1.5-1,4.9-1.1,10.1v1.5c0,4.3,0.3,7.2,0.8,8.6C280.4,119.2,281.6,120.1,282.8,120.1z M325.8,90.2l1.2,3.3l-30.7,65.9
			l-3.3,1.2l-8.1-3.8l-1.2-3.3l30.7-65.9l3.3-1.2L325.8,90.2z M318.2,152.2c-0.8-1.2-1.4-3.4-1.8-6.5c-0.2-2.1-0.3-4.4-0.3-7v-1.1
			c0-3,0.2-5.7,0.6-8.1c0.4-3.1,1.1-5.2,2-6.5c2.7-3.6,5.9-5.4,9.7-5.4c4.2,0,7.7,2.2,10.5,6.6c0.8,1.2,1.3,3.3,1.6,6.2
			c0.2,2,0.3,4.2,0.3,6.7v1.1c0,2.9-0.2,5.5-0.5,7.8c-0.3,2.9-0.9,5-1.8,6.2c-2.7,4.1-6.1,6.1-10.2,6.1
			C324.3,158.3,320.9,156.3,318.2,152.2z M328.3,150.5c1.2,0,2.4-0.8,3.6-2.5c0.6-1.5,0.9-4.8,1-9.8v-0.9c0-4.5-0.3-7.5-0.8-8.9
			c-1.2-1.9-2.5-2.8-3.8-2.8c-1.1,0-2.2,0.7-3.3,2.1c-0.7,1.6-1,4.9-1.1,10.1v1.5c0,4.4,0.3,7.3,0.8,8.7
			C325.9,149.6,327.1,150.5,328.3,150.5z"/>
	</g>
</g>
<g id="stralen">
	<g id="XMLID_20_">
		<path id="XMLID_88_" class="st2" d="M306.8,45.4c-0.9,0-1.6-0.7-1.6-1.6V16.2c0-0.9,0.7-1.6,1.6-1.6c0.9,0,1.6,0.7,1.6,1.6v27.5
			C308.4,44.6,307.7,45.4,306.8,45.4z"/>
		<path id="XMLID_28_" class="st2" d="M349,55.7c-0.3,0-0.6-0.1-0.8-0.2c-0.8-0.5-1-1.4-0.5-2.2l14.3-23.5c0.5-0.8,1.4-1,2.2-0.5
			c0.8,0.5,1,1.4,0.5,2.2l-14.3,23.5C350,55.4,349.5,55.7,349,55.7z"/>
		<path id="XMLID_27_" class="st2" d="M375.2,88.9c-0.6,0-1.1-0.3-1.4-0.9c-0.4-0.8-0.1-1.7,0.7-2.1l24.4-12.7
			c0.8-0.4,1.7-0.1,2.1,0.7c0.4,0.8,0.1,1.7-0.7,2.1l-24.4,12.7C375.7,88.8,375.4,88.9,375.2,88.9z"/>
		<path id="XMLID_26_" class="st2" d="M410.6,128.1c0,0-0.1,0-0.1,0l-27.5-1.8c-0.9-0.1-1.5-0.8-1.5-1.7c0.1-0.9,0.8-1.5,1.7-1.5
			l27.5,1.8c0.9,0.1,1.5,0.8,1.5,1.7C412.1,127.5,411.4,128.1,410.6,128.1z"/>
		<path id="XMLID_25_" class="st2" d="M393.1,183.6c-0.3,0-0.6-0.1-0.9-0.3l-22.6-15.7c-0.7-0.5-0.9-1.5-0.4-2.2
			c0.5-0.7,1.5-0.9,2.2-0.4l22.6,15.7c0.7,0.5,0.9,1.5,0.4,2.2C394.1,183.4,393.6,183.6,393.1,183.6z"/>
		<path id="XMLID_24_" class="st2" d="M260.6,55.7c-0.5,0-1.1-0.3-1.4-0.8L245,31.4c-0.5-0.8-0.2-1.7,0.5-2.2
			c0.8-0.5,1.7-0.2,2.2,0.5l14.3,23.5c0.5,0.8,0.2,1.7-0.5,2.2C261.1,55.6,260.9,55.7,260.6,55.7z"/>
		<path id="XMLID_23_" class="st2" d="M234.4,88.9c-0.2,0-0.5-0.1-0.7-0.2L209.2,76c-0.8-0.4-1.1-1.4-0.7-2.1
			c0.4-0.8,1.4-1.1,2.1-0.7l24.4,12.7c0.8,0.4,1.1,1.4,0.7,2.1C235.5,88.6,234.9,88.9,234.4,88.9z"/>
		<path id="XMLID_22_" class="st2" d="M199,128.1c-0.8,0-1.5-0.6-1.6-1.5c-0.1-0.9,0.6-1.6,1.5-1.7l27.5-1.8
			c0.9-0.1,1.6,0.6,1.7,1.5c0.1,0.9-0.6,1.6-1.5,1.7l-27.5,1.8C199,128.1,199,128.1,199,128.1z"/>
		<path id="XMLID_21_" class="st2" d="M216.5,183.6c-0.5,0-1-0.2-1.3-0.7c-0.5-0.7-0.3-1.7,0.4-2.2l22.6-15.7
			c0.7-0.5,1.7-0.3,2.2,0.4c0.5,0.7,0.3,1.7-0.4,2.2l-22.6,15.7C217.1,183.5,216.8,183.6,216.5,183.6z"/>
	</g>
</g>
</svg>
