<?xml version="1.0" encoding="utf-8"?>
<!-- Generator: Adobe Illustrator 19.0.0, SVG Export Plug-In . SVG Version: 6.00 Build 0)  -->
<svg version="1.0" xmlns="http://www.w3.org/2000/svg" xmlns:xlink="http://www.w3.org/1999/xlink" x="0px" y="0px"
	 viewBox="0 0 600 300" style="enable-background:new 0 0 600 300;" xml:space="preserve">
<style type="text/css">
	.st0{fill:#B2B2B2;}
	.st1{fill:#FFFFFF;}
	.st2{fill:#B2B2B2;stroke:#B2B2B2;stroke-width:3;stroke-miterlimit:10;}
</style>
<g id="Layer_1">
	<g id="XMLID_7_">
		<path id="XMLID_5_" class="st0" d="M345.3,85.6c-3.5-3.7-8.4-8.5-15.1-12c-6.5-3.4-13-5.1-21.7-5.8c-1.5-0.1-2.9-0.2-4.4-0.2
			c-18.1,0-30.6,8.7-37.9,16.1c-8.2,8.2-17.7,22.1-16.3,41.6c1,14.4,9.3,25.7,15.9,34.8l0.3,0.4c1.2,1.6,2.4,3.2,3.7,4.9
			c4.1,5.3,8.3,10.8,11.4,17.7l0.3,0.8c1.2,2.8,2.8,6.3,2.6,8.1c-0.1,1.3-0.7,1.9-1.3,2.7c-0.9,1-2,2.3-1.3,5
			c0.9,3.5,5.4,3.5,10.5,3.5l26.7,0c0,0,0,0,0,0c4.2,0,8.6,0,9.5-3.5c0.7-2.6-0.5-4.1-1.5-5.3c-0.6-0.7-1-1.3-1.1-2
			c-0.5-3.5,3.3-11.5,7.1-17.5c2.4-3.8,4.9-7,7.4-10.2c1.1-1.5,2.2-2.8,3.2-4.2c0.5-0.7,1.1-1.5,1.6-2.2
			c6.8-9.1,13.9-18.6,14.9-32.6C361.2,105.8,351.3,92.1,345.3,85.6z"/>
		<path id="XMLID_3_" class="st0" d="M320.8,207.6c-1.7-0.4-4.2-0.5-8-0.5c-2,0-4.1,0-6.2,0.1c-2.1,0-4.2,0.1-6.1,0.1
			c-0.9,0-1.7,0-2.7,0c-1,0-2,0-2.9,0c-3.5,0-10.7,0-11.1,4.6c-0.1,1.3,0.3,2.3,1.2,3.1c2,1.8,6,2.1,9.7,2.1c1.7,0,3.5-0.1,5.2-0.1
			c1.7-0.1,3.3-0.1,4.8-0.1c1.1,0,2.3,0,3.6,0c2.8,0,5.9,0,8.6,0c4.5,0,8.8-0.1,9.1-4.2C326.2,208.7,323.1,208,320.8,207.6z"/>
		<path id="XMLID_2_" class="st0" d="M320.8,220.5c-1.7-0.4-4.2-0.5-8-0.5c-2,0-4.1,0-6.2,0.1c-2.1,0-4.2,0.1-6.1,0.1
			c-0.9,0-1.7,0-2.7,0c-1,0-2,0-2.9,0c-3.5,0-10.7,0-11.1,4.6c-0.1,1.3,0.3,2.3,1.2,3.1c2,1.8,6,2.1,9.7,2.1c1.7,0,3.5-0.1,5.2-0.1
			c1.7-0.1,3.3-0.1,4.8-0.1c1.1,0,2.3,0,3.6,0c2.8,0,5.9,0,8.6,0c4.5,0,8.8-0.1,9.1-4.2C326.2,221.7,323.1,221,320.8,220.5z"/>
		<path id="XMLID_1_" class="st0" d="M314.8,232.5L314.8,232.5c-1.2-0.3-3.2-0.4-6.7-0.4c-1.3,0-2.7,0-4.1,0c-1.1,0-2.2,0-3.2,0
			c-4.4,0-9.9,0-10.3,4.2c-0.1,1.3,0.3,2.4,1.1,3.2c1.6,1.5,4.4,1.8,8.4,1.8c0.7,0,1.4,0,2.2,0c0.8,0,1.5,0,2.3,0c0.9,0,1.8,0,2.7,0
			c0.9,0,1.8,0,2.7,0c2.8,0,8.7,0,9-4.3C319.3,233.7,316.8,233,314.8,232.5z"/>
	</g>
	<g id="XMLID_4_">
		<path id="XMLID_9_" class="st1" d="M278,124.5c-0.7-1-1.2-2.8-1.5-5.4c-0.2-1.7-0.3-3.6-0.3-5.8v-0.9c0-2.5,0.2-4.8,0.4-6.8
			c0.3-2.6,0.9-4.4,1.7-5.4c2.2-3,4.9-4.5,8.1-4.5c3.5,0,6.4,1.8,8.7,5.5c0.6,1,1.1,2.7,1.3,5.2c0.2,1.9,0.3,4,0.3,6.4
			c0,2.4-0.2,4.6-0.4,6.5c-0.3,2.4-0.8,4.2-1.5,5.2c-2.2,3.4-5.1,5.1-8.4,5.1C283.1,129.7,280.3,128,278,124.5z M286.5,123.1
			c1,0,2-0.7,3-2.1c0.5-1.2,0.8-3.9,0.8-8.1v-0.7c0-3.8-0.2-6.3-0.7-7.5c-1-1.6-2-2.3-3.1-2.3c-0.9,0-1.8,0.6-2.7,1.8
			c-0.5,1.3-0.8,4.1-0.9,8.4v1.2c0,3.6,0.2,6,0.7,7.2C284.5,122.4,285.5,123.1,286.5,123.1z M322.3,98.2l1,2.8l-25.6,54.9l-2.8,1
			l-6.7-3.1l-1-2.8l25.6-54.9l2.8-1L322.3,98.2z M315.9,149.9c-0.7-1-1.2-2.8-1.5-5.4c-0.2-1.7-0.3-3.7-0.3-5.8v-0.9
			c0-2.5,0.2-4.8,0.5-6.7c0.3-2.6,0.9-4.4,1.6-5.4c2.2-3,4.9-4.5,8.1-4.5c3.5,0,6.4,1.8,8.7,5.5c0.6,1,1.1,2.8,1.3,5.2
			c0.2,1.7,0.3,3.5,0.3,5.6v0.9c0,2.4-0.2,4.6-0.4,6.5c-0.3,2.4-0.8,4.2-1.5,5.2c-2.3,3.4-5.1,5.1-8.5,5.1
			C321,155,318.2,153.3,315.9,149.9z M324.4,148.5c1,0,2-0.7,3-2.1c0.5-1.2,0.8-4,0.8-8.2v-0.7c0-3.8-0.2-6.3-0.6-7.4
			c-1-1.6-2.1-2.4-3.1-2.4c-0.9,0-1.8,0.6-2.7,1.8c-0.5,1.3-0.8,4.1-0.9,8.4v1.2c0,3.6,0.2,6.1,0.7,7.2
			C322.4,147.7,323.4,148.5,324.4,148.5z"/>
	</g>
</g>
<g id="stralen">
	<g id="XMLID_89_">
		<path id="XMLID_98_" class="st2" d="M306.4,60.9c-0.7,0-1.3-0.6-1.3-1.3V36.6c0-0.7,0.6-1.3,1.3-1.3s1.3,0.6,1.3,1.3v22.9
			C307.8,60.3,307.2,60.9,306.4,60.9z"/>
		<path id="XMLID_97_" class="st2" d="M341.6,69.4c-0.2,0-0.5-0.1-0.7-0.2c-0.6-0.4-0.8-1.2-0.4-1.8l11.9-19.6
			c0.4-0.6,1.2-0.8,1.8-0.4c0.6,0.4,0.8,1.2,0.4,1.8l-11.9,19.6C342.5,69.2,342.1,69.4,341.6,69.4z"/>
		<path id="XMLID_96_" class="st2" d="M363.5,97.1c-0.5,0-0.9-0.3-1.2-0.7c-0.3-0.6-0.1-1.4,0.6-1.8L383.2,84
			c0.6-0.3,1.4-0.1,1.8,0.6c0.3,0.6,0.1,1.4-0.6,1.8L364.1,97C363.9,97.1,363.7,97.1,363.5,97.1z"/>
		<path id="XMLID_95_" class="st2" d="M393,129.8C392.9,129.8,392.9,129.8,393,129.8l-23-1.5c-0.7,0-1.3-0.7-1.2-1.4
			c0-0.7,0.7-1.3,1.4-1.2l22.9,1.5c0.7,0,1.3,0.7,1.2,1.4C394.2,129.3,393.7,129.8,393,129.8z"/>
		<path id="XMLID_94_" class="st2" d="M378.4,176c-0.3,0-0.5-0.1-0.8-0.2l-18.8-13.1c-0.6-0.4-0.7-1.2-0.3-1.8
			c0.4-0.6,1.2-0.7,1.8-0.3l18.8,13.1c0.6,0.4,0.7,1.2,0.3,1.8C379.2,175.8,378.8,176,378.4,176z"/>
		<path id="XMLID_93_" class="st2" d="M267.9,69.4c-0.4,0-0.9-0.2-1.1-0.6l-11.9-19.6c-0.4-0.6-0.2-1.4,0.4-1.8
			c0.6-0.4,1.4-0.2,1.8,0.4l11.9,19.6c0.4,0.6,0.2,1.4-0.4,1.8C268.4,69.4,268.2,69.4,267.9,69.4z"/>
		<path id="XMLID_92_" class="st2" d="M246.1,97.1c-0.2,0-0.4,0-0.6-0.2l-20.3-10.6c-0.6-0.3-0.9-1.1-0.6-1.8
			c0.3-0.6,1.1-0.9,1.8-0.6l20.3,10.6c0.6,0.3,0.9,1.1,0.6,1.8C247,96.9,246.6,97.1,246.1,97.1z"/>
		<path id="XMLID_91_" class="st2" d="M216.6,129.8c-0.7,0-1.3-0.5-1.3-1.2c0-0.7,0.5-1.4,1.2-1.4l22.9-1.5c0.7,0,1.4,0.5,1.4,1.2
			c0,0.7-0.5,1.4-1.2,1.4L216.6,129.8C216.6,129.8,216.6,129.8,216.6,129.8z"/>
		<path id="XMLID_90_" class="st2" d="M231.2,176c-0.4,0-0.8-0.2-1.1-0.6c-0.4-0.6-0.3-1.4,0.3-1.8l18.8-13.1
			c0.6-0.4,1.4-0.3,1.8,0.3c0.4,0.6,0.3,1.4-0.3,1.8L232,175.8C231.7,176,231.5,176,231.2,176z"/>
	</g>
</g>
</svg>
