<?xml version="1.0" encoding="utf-8"?>
<!-- Generator: Adobe Illustrator 19.0.0, SVG Export Plug-In . SVG Version: 6.00 Build 0)  -->
<svg version="1.0" id="Layer_1" xmlns="http://www.w3.org/2000/svg" xmlns:xlink="http://www.w3.org/1999/xlink" x="0px" y="0px"
	 viewBox="0 0 75 75" style="enable-background:new 0 0 75 75;" xml:space="preserve">
<style type="text/css">
	.st0{fill:#3F82C1;}
	.st1{fill:none;}
	.st2{fill:#FFFFFF;}
</style>
<g id="XMLID_187_">
	<rect id="XMLID_184_" x="5.9" y="5.5" class="st0" width="63.9" height="64.6"/>
	<g id="XMLID_185_">
		<rect id="XMLID_186_" x="39.5" y="6.5" class="st1" width="8" height="30"/>
		<rect id="XMLID_212_" x="48.5" y="6.5" class="st1" width="11" height="30"/>
		<rect id="XMLID_213_" x="48.5" y="38.5" class="st1" width="11" height="31"/>
		<rect id="XMLID_264_" x="17.5" y="6.5" class="st1" width="10" height="30"/>
		<rect id="XMLID_269_" x="6.5" y="6.5" class="st1" width="10" height="30"/>
		<rect id="XMLID_270_" x="17.5" y="38.5" class="st1" width="10" height="31"/>
		<rect id="XMLID_271_" x="28.5" y="6.5" class="st1" width="8" height="30"/>
		<rect id="XMLID_272_" x="60.5" y="6.5" class="st1" width="9" height="30"/>
		<rect id="XMLID_273_" x="60.5" y="38.5" class="st1" width="9" height="31"/>
		<rect id="XMLID_274_" x="6.5" y="38.5" class="st1" width="10" height="31"/>
		<rect id="XMLID_275_" x="28.5" y="38.5" class="st1" width="8" height="31"/>
		<rect id="XMLID_276_" x="39.5" y="38.5" class="st1" width="8" height="31"/>
		<path id="XMLID_279_" class="st2" d="M4.5,4.5v67h67v-67H4.5z M59.5,6.5v30h-11v-30H59.5z M27.5,38.5v31h-10v-31H27.5z M36.5,36.5
			h-8v-30h8V36.5z M59.5,38.5v31h-11v-31H59.5z M47.5,36.5h-8v-30h8V36.5z M27.5,6.5v30h-10v-30H27.5z M16.5,6.5v30h-10v-30H16.5z
			 M6.5,38.5h10v31h-10V38.5z M28.5,69.5v-31h8v31H28.5z M39.5,38.5h8v31h-8V38.5z M69.5,69.5h-9v-31h9V69.5z M69.5,36.5h-9v-30h9
			V36.5z"/>
	</g>
</g>
</svg>
