<?xml version="1.0" encoding="utf-8"?>
<!-- Generator: Adobe Illustrator 19.0.0, SVG Export Plug-In . SVG Version: 6.00 Build 0)  -->
<svg version="1.0" id="Layer_1" xmlns="http://www.w3.org/2000/svg" xmlns:xlink="http://www.w3.org/1999/xlink" x="0px" y="0px"
	 viewBox="0 0 75 75" style="enable-background:new 0 0 75 75;" xml:space="preserve">
<style type="text/css">
	.st0{fill:#3F82C1;}
	.st1{fill:#EFEFEF;}
	.st2{fill:#FFFFFF;}
	.st3{fill:none;}
</style>
<g id="XMLID_205_">
	<rect id="XMLID_184_" x="5.9" y="4.5" class="st0" width="63.9" height="64.6"/>
	<g id="XMLID_187_">
		<line id="XMLID_188_" class="st1" x1="27.5" y1="4.5" x2="27.5" y2="69.5"/>
		<rect id="XMLID_189_" x="27.5" y="4.5" class="st2" width="1" height="65"/>
	</g>
	<g id="XMLID_190_">
		<line id="XMLID_191_" class="st1" x1="16.5" y1="5.5" x2="16.5" y2="69.5"/>
		<rect id="XMLID_192_" x="16.5" y="5.5" class="st2" width="1" height="64"/>
	</g>
	<g id="XMLID_193_">
		<line id="XMLID_194_" class="st1" x1="60.5" y1="4.5" x2="60.5" y2="69.5"/>
		<rect id="XMLID_195_" x="59.5" y="4.5" class="st2" width="1" height="65"/>
	</g>
	<g id="XMLID_196_">
		<line id="XMLID_197_" class="st1" x1="48.5" y1="5.5" x2="48.5" y2="69.5"/>
		<rect id="XMLID_198_" x="47.5" y="5.5" class="st2" width="1" height="64"/>
	</g>
	<g id="XMLID_199_">
		<line id="XMLID_200_" class="st2" x1="38.5" y1="4.5" x2="38.5" y2="68.5"/>
		<rect id="XMLID_201_" x="36.5" y="4.5" class="st2" width="3" height="64"/>
	</g>
	<g id="XMLID_202_">
		<line id="XMLID_203_" class="st2" x1="5.5" y1="36.5" x2="69.5" y2="36.5"/>
		<rect id="XMLID_204_" x="5.5" y="35.5" class="st2" width="64" height="2"/>
	</g>
	
		<rect id="XMLID_185_" x="33.2" y="32" transform="matrix(0.7071 -0.7071 0.7071 0.7071 -14.8084 37.4746)" class="st2" width="9.2" height="9.2"/>
	<rect id="XMLID_1257_" x="4.5" y="3.5" class="st3" width="67" height="66"/>
	<polygon id="XMLID_211_" class="st3" points="12.3,68.9 10.8,70.5 32.2,70.5 31.1,69.3 37.6,62.7 44.1,69.3 43,70.5 64.8,70.5 
		63.4,68.9 70,62.3 71.5,63.5 71.5,41.8 70,43.1 63.4,36.6 70,30.1 71.5,31.5 71.5,9.8 70,11.1 63.4,4.9 65.1,3.5 42.6,3.5 
		44.3,4.9 37.8,11.3 31.3,5 33.1,3.5 10.5,3.5 12.3,4.9 5.8,11.3 4.5,9.9 4.5,31.3 5.8,30.1 12.3,36.6 5.8,43.1 4.5,41.9 4.5,63.4 
		5.8,62.3 	"/>
	<path id="XMLID_213_" class="st2" d="M4.5,3.5v67h67v-67H4.5z M69.5,30.9l-5.7,5.7l5.7,5.7v20.7L64,68.5H43.5l-5.6-5.8l-5.6,5.8H12
		l-5.5-5.4V42.3l5.7-5.7L6.5,31V10.3L12,5.5h20l6,5.9l6-5.9h20l5.5,4.8V30.9z"/>
</g>
</svg>
