<?xml version="1.0" encoding="utf-8"?>
<!-- Generator: Adobe Illustrator 19.0.0, SVG Export Plug-In . SVG Version: 6.00 Build 0)  -->
<svg version="1.0" id="Layer_1" xmlns="http://www.w3.org/2000/svg" xmlns:xlink="http://www.w3.org/1999/xlink" x="0px" y="0px"
	 viewBox="0 0 100 100" style="enable-background:new 0 0 100 100;" xml:space="preserve">
<style type="text/css">
	.st0{fill:#FFF200;}
	.st1{fill:#FFFFFF;}
</style>
<g id="XMLID_1792_">
	<line id="XMLID_1829_" class="st0" x1="51.4" y1="5.1" x2="51.4" y2="97"/>
	<path id="XMLID_1828_" class="st0" d="M51.4,5.1c1.7,7.7,2.5,15.3,3.1,23c0.6,7.7,0.9,15.3,0.9,23c0,7.7-0.3,15.3-0.9,23
		c-0.6,7.7-1.5,15.3-3.1,23c-1.7-7.7-2.5-15.3-3.1-23c-0.6-7.7-0.9-15.3-0.9-23c0-7.7,0.3-15.3,0.9-23C48.8,20.4,49.7,12.7,51.4,5.1
		L51.4,5.1z"/>
	<line id="XMLID_1827_" class="st0" x1="43.4" y1="5.8" x2="59.3" y2="96.3"/>
	<path id="XMLID_1826_" class="st0" d="M43.4,5.8c3,7.3,5.1,14.7,7.1,22.1c1.9,7.4,3.5,14.9,4.8,22.5c1.3,7.5,2.4,15.1,3.2,22.8
		c0.7,7.7,1.2,15.4,0.9,23.2c-3-7.3-5.2-14.7-7.1-22.1c-1.9-7.4-3.5-14.9-4.8-22.5C46.1,44.2,45,36.6,44.3,29
		C43.6,21.3,43.1,13.6,43.4,5.8L43.4,5.8z"/>
	<line id="XMLID_1825_" class="st0" x1="35.6" y1="7.8" x2="67.1" y2="94.3"/>
	<path id="XMLID_1824_" class="st0" d="M35.6,7.8c4.2,6.6,7.6,13.5,10.8,20.5c3.2,7,6,14.1,8.7,21.3c2.6,7.2,5,14.5,7.1,21.9
		c2,7.4,3.9,14.9,4.9,22.7c-4.2-6.6-7.6-13.5-10.8-20.5c-3.2-7-6.1-14.1-8.7-21.3c-2.6-7.2-5-14.5-7.1-21.9
		C38.5,23.1,36.7,15.6,35.6,7.8L35.6,7.8z"/>
	<line id="XMLID_1823_" class="st0" x1="28.4" y1="11.2" x2="74.3" y2="90.9"/>
	<path id="XMLID_1822_" class="st0" d="M28.4,11.2c5.3,5.8,9.8,12,14.2,18.3c4.3,6.3,8.4,12.8,12.2,19.5c3.8,6.6,7.4,13.4,10.8,20.3
		c3.3,6.9,6.4,14,8.8,21.5c-5.3-5.8-9.9-12-14.2-18.3c-4.3-6.3-8.4-12.8-12.2-19.5c-3.8-6.6-7.4-13.4-10.7-20.3
		C33.9,25.8,30.8,18.7,28.4,11.2L28.4,11.2z"/>
	<line id="XMLID_1821_" class="st0" x1="21.8" y1="15.8" x2="80.9" y2="86.3"/>
	<path id="XMLID_1820_" class="st0" d="M21.8,15.8C28,20.6,33.6,26,39,31.4c5.4,5.5,10.5,11.2,15.4,17.1c4.9,5.9,9.6,11.9,14.1,18.2
		c4.5,6.3,8.7,12.7,12.4,19.6c-6.2-4.8-11.8-10.1-17.2-15.6c-5.4-5.5-10.5-11.2-15.4-17.1c-4.9-5.9-9.6-11.9-14.1-18.2
		C29.7,29.2,25.5,22.8,21.8,15.8L21.8,15.8z"/>
	<line id="XMLID_1819_" class="st0" x1="16.1" y1="21.5" x2="86.6" y2="80.6"/>
	<path id="XMLID_1818_" class="st0" d="M16.1,21.5c6.9,3.7,13.4,7.9,19.6,12.4C42,38.4,48.1,43.1,53.9,48C59.8,52.9,65.5,58,71,63.4
		c5.5,5.4,10.8,11,15.6,17.2c-6.9-3.6-13.4-7.9-19.6-12.4c-6.2-4.5-12.3-9.2-18.2-14.1c-5.9-4.9-11.6-10.1-17.1-15.4
		C26.3,33.3,20.9,27.7,16.1,21.5L16.1,21.5z"/>
	<line id="XMLID_1817_" class="st0" x1="11.5" y1="28.1" x2="91.2" y2="74"/>
	<path id="XMLID_1816_" class="st0" d="M11.5,28.1c7.5,2.4,14.5,5.5,21.5,8.8c6.9,3.3,13.7,6.9,20.3,10.7
		c6.6,3.8,13.1,7.9,19.5,12.2c6.3,4.4,12.5,8.9,18.3,14.2c-7.5-2.4-14.5-5.5-21.5-8.8c-6.9-3.3-13.7-6.9-20.3-10.8
		c-6.6-3.8-13.1-7.9-19.5-12.2C23.6,37.9,17.3,33.3,11.5,28.1L11.5,28.1z"/>
	<line id="XMLID_1815_" class="st0" x1="8.2" y1="35.3" x2="94.6" y2="66.8"/>
	<path id="XMLID_1814_" class="st0" d="M8.2,35.3c7.8,1.1,15.3,2.9,22.7,4.9c7.4,2.1,14.7,4.4,21.9,7.1C59.9,49.9,67,52.8,74,56
		c7,3.2,13.9,6.6,20.5,10.8c-7.8-1.1-15.3-2.9-22.7-4.9c-7.4-2.1-14.7-4.4-21.9-7.1c-7.2-2.6-14.3-5.5-21.3-8.7
		C21.7,42.9,14.8,39.5,8.2,35.3L8.2,35.3z"/>
	<line id="XMLID_1813_" class="st0" x1="6.1" y1="43.1" x2="96.6" y2="59"/>
	<path id="XMLID_1812_" class="st0" d="M6.1,43.1c7.8-0.3,15.5,0.2,23.2,0.9c7.6,0.8,15.2,1.8,22.8,3.1c7.5,1.3,15,2.9,22.5,4.8
		c7.4,1.9,14.8,4.1,22.1,7.1c-7.8,0.3-15.5-0.2-23.2-0.9c-7.6-0.8-15.2-1.8-22.8-3.2c-7.5-1.3-15-2.9-22.5-4.8
		C20.7,48.2,13.3,46,6.1,43.1L6.1,43.1z"/>
	<line id="XMLID_1811_" class="st0" x1="5.4" y1="51.1" x2="97.3" y2="51.1"/>
	<path id="XMLID_1810_" class="st0" d="M5.4,51.1c7.7-1.7,15.3-2.5,23-3.1c7.7-0.6,15.3-0.9,23-0.9c7.7,0,15.3,0.3,23,0.9
		c7.7,0.6,15.3,1.5,23,3.1c-7.7,1.7-15.3,2.5-23,3.1c-7.7,0.6-15.3,0.9-23,0.9c-7.7,0-15.3-0.3-23-0.9C20.7,53.6,13,52.7,5.4,51.1
		L5.4,51.1z"/>
	<line id="XMLID_1809_" class="st0" x1="6.1" y1="59" x2="96.6" y2="43.1"/>
	<path id="XMLID_1808_" class="st0" d="M6.1,59c7.3-3,14.7-5.1,22.1-7.1c7.4-1.9,14.9-3.5,22.5-4.8c7.5-1.3,15.1-2.4,22.8-3.2
		c7.7-0.7,15.4-1.2,23.2-0.9c-7.3,3-14.7,5.2-22.1,7.1c-7.4,1.9-14.9,3.5-22.5,4.8c-7.5,1.3-15.1,2.4-22.8,3.1
		C21.6,58.9,13.9,59.3,6.1,59L6.1,59z"/>
	<line id="XMLID_1807_" class="st0" x1="8.2" y1="66.8" x2="94.6" y2="35.3"/>
	<path id="XMLID_1806_" class="st0" d="M8.2,66.8c6.6-4.2,13.5-7.6,20.5-10.8c7-3.2,14.1-6.1,21.3-8.7c7.2-2.6,14.5-5,21.9-7.1
		c7.4-2,14.9-3.9,22.7-4.9C87.9,39.5,81,42.9,74,46.1c-7,3.2-14.1,6.1-21.3,8.7c-7.2,2.6-14.5,5-21.9,7.1
		C23.4,63.9,15.9,65.7,8.2,66.8L8.2,66.8z"/>
	<line id="XMLID_1805_" class="st0" x1="11.5" y1="74" x2="91.2" y2="28.1"/>
	<path id="XMLID_1804_" class="st0" d="M11.5,74c5.8-5.3,12-9.8,18.3-14.2c6.3-4.3,12.8-8.4,19.5-12.2c6.6-3.8,13.4-7.4,20.3-10.8
		c6.9-3.3,14-6.4,21.5-8.8c-5.8,5.3-12,9.9-18.3,14.2c-6.3,4.3-12.8,8.4-19.5,12.2c-6.6,3.8-13.4,7.4-20.3,10.7
		C26.1,68.6,19,71.6,11.5,74L11.5,74z"/>
	<line id="XMLID_1803_" class="st0" x1="16.1" y1="80.6" x2="86.6" y2="21.5"/>
	<path id="XMLID_1802_" class="st0" d="M16.1,80.6c4.8-6.2,10.1-11.8,15.6-17.2C37.2,58,42.9,52.9,48.8,48
		c5.9-4.9,11.9-9.6,18.2-14.1c6.3-4.5,12.7-8.7,19.6-12.4C81.8,27.7,76.5,33.3,71,38.7c-5.5,5.4-11.2,10.5-17.1,15.4
		C48.1,59,42,63.8,35.8,68.2C29.5,72.7,23.1,76.9,16.1,80.6L16.1,80.6z"/>
	<line id="XMLID_1801_" class="st0" x1="21.8" y1="86.3" x2="80.9" y2="15.8"/>
	<path id="XMLID_1800_" class="st0" d="M21.8,86.3c3.7-6.9,7.9-13.4,12.4-19.6c4.5-6.2,9.2-12.3,14.1-18.2
		c4.9-5.9,10.1-11.6,15.4-17.1c5.4-5.5,11-10.8,17.2-15.6c-3.6,6.9-7.9,13.4-12.4,19.6c-4.5,6.2-9.2,12.3-14.1,18.2
		C49.5,59.5,44.4,65.2,39,70.7C33.6,76.1,28,81.5,21.8,86.3L21.8,86.3z"/>
	<line id="XMLID_1799_" class="st0" x1="28.4" y1="90.9" x2="74.3" y2="11.2"/>
	<path id="XMLID_1798_" class="st0" d="M28.4,90.9c2.4-7.5,5.5-14.5,8.8-21.5c3.3-6.9,6.9-13.7,10.7-20.3
		c3.8-6.6,7.9-13.1,12.2-19.5c4.4-6.3,8.9-12.5,14.2-18.3c-2.4,7.5-5.5,14.5-8.8,21.5c-3.3,6.9-6.9,13.7-10.8,20.3
		c-3.8,6.6-7.9,13.1-12.2,19.5C38.2,78.9,33.6,85.1,28.4,90.9L28.4,90.9z"/>
	<line id="XMLID_1797_" class="st0" x1="35.6" y1="94.3" x2="67.1" y2="7.8"/>
	<path id="XMLID_1796_" class="st0" d="M35.6,94.3c1.1-7.8,2.9-15.3,4.9-22.7c2.1-7.4,4.4-14.7,7.1-21.9c2.6-7.2,5.5-14.3,8.7-21.3
		c3.2-7,6.6-13.9,10.8-20.5c-1.1,7.8-2.9,15.3-4.9,22.7c-2.1,7.4-4.4,14.7-7.1,21.9c-2.6,7.2-5.5,14.3-8.7,21.3
		C43.2,80.7,39.8,87.6,35.6,94.3L35.6,94.3z"/>
	<line id="XMLID_1795_" class="st0" x1="43.4" y1="96.3" x2="59.3" y2="5.8"/>
	<path id="XMLID_1794_" class="st0" d="M43.4,96.3c-0.3-7.8,0.2-15.5,0.9-23.2c0.8-7.6,1.8-15.2,3.1-22.8c1.3-7.5,2.9-15,4.8-22.5
		c1.9-7.4,4.1-14.8,7.1-22.1c0.3,7.8-0.2,15.5-0.9,23.2c-0.8,7.6-1.8,15.2-3.2,22.8c-1.3,7.5-2.9,15-4.8,22.5
		C48.5,81.7,46.3,89.1,43.4,96.3L43.4,96.3z"/>
	<path id="XMLID_1793_" class="st1" d="M31.2,51.1c0-11.1,9-20.2,20.2-20.2c11.1,0,20.2,9,20.2,20.2c0,11.1-9,20.2-20.2,20.2
		C40.2,71.2,31.2,62.2,31.2,51.1L31.2,51.1z"/>
</g>
</svg>
